<?xml version="1.0"?>
<svg xmlns="http://www.w3.org/2000/svg" xmlns:xlink="http://www.w3.org/1999/xlink" version="1.1" viewBox="0 0 224 224" width="26px" height="26px"><g fill="none" fill-rule="nonzero" stroke="none" stroke-width="1" stroke-linecap="butt" stroke-linejoin="miter" stroke-miterlimit="10" stroke-dasharray="" stroke-dashoffset="0" font-family="none" font-weight="none" font-size="none" text-anchor="none" style="mix-blend-mode: normal"><path d="M0,224v-224h224v224z" fill="none"/><g fill="#ff5f5f"><g id="surface1"><path d="M187.25,169.21154l-18.07211,18.03846c-3.29808,3.33173 -8.6827,3.33173 -12.01442,0l-45.16347,-45.12981l-45.12981,45.12981c-3.33173,3.33173 -8.75,3.33173 -12.04808,0l-18.07211,-18.03846c-3.33173,-3.33173 -3.33173,-8.71635 0,-12.04807l45.12981,-45.16347l-45.12981,-45.12981c-3.29807,-3.36538 -3.29807,-8.78365 0,-12.04808l18.07211,-18.07211c3.29808,-3.33173 8.71635,-3.33173 12.04808,0l45.12981,45.16347l45.16347,-45.16347c3.33172,-3.33173 8.75,-3.33173 12.01442,0l18.07211,18.03846c3.33173,3.33173 3.33173,8.75 0.03365,12.08173l-45.16346,45.12981l45.12981,45.16347c3.33173,3.33172 3.33173,8.71634 0,12.04807z"/></g></g></g></svg>
